<svg width="43" height="39" viewBox="0 0 43 39" fill="none" xmlns="http://www.w3.org/2000/svg">
<path d="M36.875 1H6.125C3.29454 1 1 3.76091 1 7.16667V31.8333C1 35.2391 3.29454 38 6.125 38H36.875C39.7055 38 42 35.2391 42 31.8333V7.16667C42 3.76091 39.7055 1 36.875 1Z" fill="white" stroke="black" stroke-width="1.16667"/>
<path d="M1 10.25L19.2091 21.2051C19.9205 21.6328 20.7048 21.8555 21.5 21.8555C22.2952 21.8555 23.0795 21.6328 23.7909 21.2051L42 10.25" fill="white"/>
<path d="M1 10.25L19.2091 21.2051C19.9205 21.6328 20.7048 21.8555 21.5 21.8555C22.2952 21.8555 23.0795 21.6328 23.7909 21.2051L42 10.25" stroke="black" stroke-width="1.16667"/>
</svg>
