<svg width="47" height="42" viewBox="0 0 47 42" fill="none" xmlns="http://www.w3.org/2000/svg">
<rect width="47" height="41.7778" fill="white"/>
<path d="M7.83333 34.8148H19.5833C19.5833 35.7382 19.996 36.6237 20.7305 37.2766C21.465 37.9295 22.4612 38.2963 23.5 38.2963C24.5388 38.2963 25.535 37.9295 26.2695 37.2766C27.004 36.6237 27.4167 35.7382 27.4167 34.8148H39.1667C39.6861 34.8148 40.1842 34.6314 40.5514 34.305C40.9187 33.9785 41.125 33.5358 41.125 33.0741C41.125 32.6124 40.9187 32.1696 40.5514 31.8432C40.1842 31.5167 39.6861 31.3333 39.1667 31.3333V19.1482C39.1667 15.4548 37.5161 11.9127 34.578 9.30104C31.6399 6.68942 27.6551 5.22223 23.5 5.22223C19.3449 5.22223 15.3601 6.68942 12.422 9.30104C9.48392 11.9127 7.83333 15.4548 7.83333 19.1482V31.3333C7.31395 31.3333 6.81584 31.5167 6.44858 31.8432C6.08132 32.1696 5.875 32.6124 5.875 33.0741C5.875 33.5358 6.08132 33.9785 6.44858 34.305C6.81584 34.6314 7.31395 34.8148 7.83333 34.8148ZM11.75 19.1482C11.75 16.3781 12.9879 13.7215 15.1915 11.7628C17.395 9.8041 20.3837 8.70371 23.5 8.70371C26.6163 8.70371 29.605 9.8041 31.8085 11.7628C34.0121 13.7215 35.25 16.3781 35.25 19.1482V31.3333H11.75V19.1482Z" fill="#008013"/>
</svg>
