<svg width="305" height="36" viewBox="0 0 305 36" fill="none" xmlns="http://www.w3.org/2000/svg">
<path d="M26.75 35L25.3 30.15H13.25L11.8 35H0.5L13.05 0.599999H25.9L38.45 35H26.75ZM15.55 22.45H23L19.4 10.2H19.2L15.55 22.45ZM43.116 35V0.599999H54.166V35H43.116ZM87.9996 23.05C87.9996 27.35 86.7663 30.5167 84.2996 32.55C81.8663 34.5833 78.3496 35.6 73.7496 35.6C69.1496 35.6 65.6163 34.5833 63.1496 32.55C60.7163 30.5167 59.4996 27.35 59.4996 23.05V22.6H69.8496V23C69.8496 24.5667 70.1329 25.6833 70.6996 26.35C71.2996 27.0167 72.1996 27.35 73.3996 27.35C74.5996 27.35 75.4829 27.0167 76.0496 26.35C76.6496 25.6833 76.9496 24.5667 76.9496 23V0.599999H87.9996V23.05ZM117.131 35L115.681 30.15H103.631L102.181 35H90.8809L103.431 0.599999H116.281L128.831 35H117.131ZM105.931 22.45H113.381L109.781 10.2H109.581L105.931 22.45ZM152.297 0.599999C154.43 0.599999 156.33 1.1 157.997 2.1C159.664 3.06667 160.964 4.41667 161.897 6.15C162.83 7.85 163.297 9.76667 163.297 11.9V12.55C163.297 14.6833 162.83 16.6167 161.897 18.35C160.964 20.0833 159.664 21.45 157.997 22.45C156.33 23.4167 154.43 23.9 152.297 23.9H144.047V35H132.997V0.599999H152.297ZM144.047 15.85H148.597C149.764 15.85 150.63 15.55 151.197 14.95C151.797 14.35 152.097 13.5333 152.097 12.5V12.1C152.097 11.0333 151.797 10.2167 151.197 9.65C150.63 9.05 149.764 8.75 148.597 8.75H144.047V15.85ZM201.731 11.15C201.731 13.25 201.164 15.15 200.031 16.85C198.898 18.55 197.248 19.8 195.081 20.6L202.731 35H190.331L184.231 22.45H180.131V35H169.081V0.599999H190.131C192.598 0.599999 194.698 1.08333 196.431 2.05C198.198 2.98333 199.514 4.26666 200.381 5.9C201.281 7.5 201.731 9.25 201.731 11.15ZM190.481 11.6C190.481 10.7 190.181 9.95 189.581 9.35C188.981 8.75 188.248 8.45 187.381 8.45H180.131V14.8H187.381C188.248 14.8 188.981 14.5 189.581 13.9C190.181 13.2667 190.481 12.5 190.481 11.6ZM208.497 35V0.599999H219.547V35H208.497ZM256.98 35V22.6C256.98 21.0667 257.03 19.5 257.13 17.9C257.264 16.2667 257.397 14.9 257.53 13.8C257.664 12.7 257.747 12 257.78 11.7H257.58L251.23 35H242.58L236.18 11.75H235.98C236.014 12.05 236.097 12.75 236.23 13.85C236.397 14.9167 236.547 16.2667 236.68 17.9C236.814 19.5 236.88 21.0667 236.88 22.6V35H226.73V0.599999H242.33L247.53 20.45H247.73L252.88 0.599999H267.93V35H256.98ZM274.647 0.599999H304.397V8.85H285.697V13.6H301.697V21.5H285.697V26.75H304.747V35H274.647V0.599999Z" fill="#11EE42" fill-opacity="0.33"/>
<path d="M26.75 35L24.8338 35.5729L25.2605 37H26.75V35ZM25.3 30.15L27.2162 29.5771L26.7895 28.15H25.3V30.15ZM13.25 30.15V28.15H11.7605L11.3338 29.5771L13.25 30.15ZM11.8 35V37H13.2895L13.7162 35.5729L11.8 35ZM0.5 35L-1.37887 34.3145L-2.35859 37H0.5V35ZM13.05 0.599998V-1.4H11.6507L11.1711 -0.0854607L13.05 0.599998ZM25.9 0.599998L27.7789 -0.0854607L27.2993 -1.4H25.9V0.599998ZM38.45 35V37H41.3086L40.3289 34.3145L38.45 35ZM15.55 22.45L13.6333 21.8789L12.8672 24.45H15.55V22.45ZM23 22.45V24.45H25.6723L24.9189 21.8861L23 22.45ZM19.4 10.2L21.3189 9.63609L20.8968 8.2H19.4V10.2ZM19.2 10.2V8.2H17.709L17.2833 9.62889L19.2 10.2ZM28.6662 34.4271L27.2162 29.5771L23.3838 30.7229L24.8338 35.5729L28.6662 34.4271ZM25.3 28.15H13.25V32.15H25.3V28.15ZM11.3338 29.5771L9.88381 34.4271L13.7162 35.5729L15.1662 30.7229L11.3338 29.5771ZM11.8 33H0.5V37H11.8V33ZM2.37887 35.6855L14.9289 1.28546L11.1711 -0.0854607L-1.37887 34.3145L2.37887 35.6855ZM13.05 2.6H25.9V-1.4H13.05V2.6ZM24.0211 1.28546L36.5711 35.6855L40.3289 34.3145L27.7789 -0.0854607L24.0211 1.28546ZM38.45 33H26.75V37H38.45V33ZM15.55 24.45H23V20.45H15.55V24.45ZM24.9189 21.8861L21.3189 9.63609L17.4811 10.7639L21.0811 23.0139L24.9189 21.8861ZM19.4 8.2H19.2V12.2H19.4V8.2ZM17.2833 9.62889L13.6333 21.8789L17.4667 23.0211L21.1167 10.7711L17.2833 9.62889ZM43.116 35H41.116V37H43.116V35ZM43.116 0.599998V-1.4H41.116V0.599998H43.116ZM54.166 0.599998H56.166V-1.4H54.166V0.599998ZM54.166 35V37H56.166V35H54.166ZM45.116 35V0.599998H41.116V35H45.116ZM43.116 2.6H54.166V-1.4H43.116V2.6ZM52.166 0.599998V35H56.166V0.599998H52.166ZM54.166 33H43.116V37H54.166V33ZM84.2996 32.55L83.0274 31.0067L83.0172 31.0153L84.2996 32.55ZM63.1496 32.55L61.8671 34.0848L61.8775 34.0933L63.1496 32.55ZM59.4996 22.6V20.6H57.4996V22.6H59.4996ZM69.8496 22.6H71.8496V20.6H69.8496V22.6ZM70.6996 26.35L69.1757 27.6453L69.1941 27.6669L69.213 27.6879L70.6996 26.35ZM76.0496 26.35L74.563 25.0121L74.5441 25.0331L74.5257 25.0547L76.0496 26.35ZM76.9496 0.599998V-1.4H74.9496V0.599998H76.9496ZM87.9996 0.599998H89.9996V-1.4H87.9996V0.599998ZM85.9996 23.05C85.9996 26.9719 84.8873 29.4736 83.0275 31.0067L85.5718 34.0933C88.6453 31.5597 89.9996 27.7281 89.9996 23.05H85.9996ZM83.0172 31.0153C81.0752 32.6381 78.087 33.6 73.7496 33.6V37.6C78.6122 37.6 82.6574 36.5286 85.582 34.0847L83.0172 31.0153ZM73.7496 33.6C69.4147 33.6 66.4019 32.639 64.4218 31.0067L61.8775 34.0933C64.8306 36.5276 68.8845 37.6 73.7496 37.6V33.6ZM64.432 31.0153C62.6007 29.4849 61.4996 26.9805 61.4996 23.05H57.4996C57.4996 27.7195 58.8319 31.5484 61.8672 34.0847L64.432 31.0153ZM61.4996 23.05V22.6H57.4996V23.05H61.4996ZM59.4996 24.6H69.8496V20.6H59.4996V24.6ZM67.8496 22.6V23H71.8496V22.6H67.8496ZM67.8496 23C67.8496 24.7054 68.138 26.4245 69.1757 27.6453L72.2235 25.0547C72.1278 24.9422 71.8496 24.4279 71.8496 23H67.8496ZM69.213 27.6879C70.3087 28.9053 71.8337 29.35 73.3996 29.35V25.35C72.5655 25.35 72.2905 25.128 72.1862 25.0121L69.213 27.6879ZM73.3996 29.35C74.9575 29.35 76.5001 28.9081 77.5735 27.6453L74.5257 25.0547C74.4658 25.1252 74.2418 25.35 73.3996 25.35V29.35ZM77.5362 27.6879C78.6381 26.4636 78.9496 24.7242 78.9496 23H74.9496C74.9496 24.4091 74.6611 24.9031 74.563 25.0121L77.5362 27.6879ZM78.9496 23V0.599998H74.9496V23H78.9496ZM76.9496 2.6H87.9996V-1.4H76.9496V2.6ZM85.9996 0.599998V23.05H89.9996V0.599998H85.9996ZM117.131 35L115.215 35.5729L115.641 37H117.131V35ZM115.681 30.15L117.597 29.5771L117.17 28.15H115.681V30.15ZM103.631 30.15V28.15H102.141L101.715 29.5771L103.631 30.15ZM102.181 35V37H103.67L104.097 35.5729L102.181 35ZM90.8809 35L89.002 34.3145L88.0223 37H90.8809V35ZM103.431 0.599998V-1.4H102.032L101.552 -0.0854607L103.431 0.599998ZM116.281 0.599998L118.16 -0.0854607L117.68 -1.4H116.281V0.599998ZM128.831 35V37H131.689L130.71 34.3145L128.831 35ZM105.931 22.45L104.014 21.8789L103.248 24.45H105.931V22.45ZM113.381 22.45V24.45H116.053L115.3 21.8861L113.381 22.45ZM109.781 10.2L111.7 9.63609L111.278 8.2H109.781V10.2ZM109.581 10.2V8.2H108.09L107.664 9.62889L109.581 10.2ZM119.047 34.4271L117.597 29.5771L113.765 30.7229L115.215 35.5729L119.047 34.4271ZM115.681 28.15H103.631V32.15H115.681V28.15ZM101.715 29.5771L100.265 34.4271L104.097 35.5729L105.547 30.7229L101.715 29.5771ZM102.181 33H90.8809V37H102.181V33ZM92.7597 35.6855L105.31 1.28546L101.552 -0.0854607L89.002 34.3145L92.7597 35.6855ZM103.431 2.6H116.281V-1.4H103.431V2.6ZM114.402 1.28546L126.952 35.6855L130.71 34.3145L118.16 -0.0854607L114.402 1.28546ZM128.831 33H117.131V37H128.831V33ZM105.931 24.45H113.381V20.45H105.931V24.45ZM115.3 21.8861L111.7 9.63609L107.862 10.7639L111.462 23.0139L115.3 21.8861ZM109.781 8.2H109.581V12.2H109.781V8.2ZM107.664 9.62889L104.014 21.8789L107.848 23.0211L111.498 10.7711L107.664 9.62889ZM157.997 2.1L156.968 3.81498L156.981 3.82262L156.993 3.83006L157.997 2.1ZM161.897 6.15L160.136 7.0982L160.14 7.10537L160.144 7.11252L161.897 6.15ZM161.897 18.35L163.658 19.2982L161.897 18.35ZM157.997 22.45L159 24.1801L159.013 24.1726L159.026 24.165L157.997 22.45ZM144.047 23.9V21.9H142.047V23.9H144.047ZM144.047 35V37H146.047V35H144.047ZM132.997 35H130.997V37H132.997V35ZM132.997 0.599998V-1.4H130.997V0.599998H132.997ZM144.047 15.85H142.047V17.85H144.047V15.85ZM151.197 14.95L149.783 13.5358L149.762 13.556L149.743 13.5768L151.197 14.95ZM151.197 9.65L149.743 11.0232L149.782 11.0648L149.824 11.104L151.197 9.65ZM144.047 8.75V6.75H142.047V8.75H144.047ZM152.297 2.6C154.104 2.6 155.642 3.0194 156.968 3.81498L159.026 0.385012C157.019 -0.819405 154.756 -1.4 152.297 -1.4V2.6ZM156.993 3.83006C158.333 4.60695 159.374 5.68305 160.136 7.0982L163.658 5.2018C162.553 3.15028 160.994 1.52638 159 0.369936L156.993 3.83006ZM160.144 7.11252C160.899 8.48878 161.297 10.0687 161.297 11.9H165.297C165.297 9.46459 164.761 7.21122 163.65 5.18748L160.144 7.11252ZM161.297 11.9V12.55H165.297V11.9H161.297ZM161.297 12.55C161.297 14.3807 160.899 15.9839 160.136 17.4018L163.658 19.2982C164.761 17.2494 165.297 14.9859 165.297 12.55H161.297ZM160.136 17.4018C159.371 18.8226 158.322 19.9226 156.968 20.735L159.026 24.165C161.005 22.9774 162.556 21.344 163.658 19.2982L160.136 17.4018ZM156.993 20.7199C155.663 21.4913 154.117 21.9 152.297 21.9V25.9C154.744 25.9 156.997 25.342 159 24.1801L156.993 20.7199ZM152.297 21.9H144.047V25.9H152.297V21.9ZM142.047 23.9V35H146.047V23.9H142.047ZM144.047 33H132.997V37H144.047V33ZM134.997 35V0.599998H130.997V35H134.997ZM132.997 2.6H152.297V-1.4H132.997V2.6ZM144.047 17.85H148.597V13.85H144.047V17.85ZM148.597 17.85C150.082 17.85 151.572 17.4655 152.651 16.3232L149.743 13.5768C149.688 13.6345 149.446 13.85 148.597 13.85V17.85ZM152.611 16.3642C153.665 15.3103 154.097 13.9407 154.097 12.5H150.097C150.097 13.126 149.929 13.3897 149.783 13.5358L152.611 16.3642ZM154.097 12.5V12.1H150.097V12.5H154.097ZM154.097 12.1C154.097 10.6527 153.679 9.24296 152.57 8.19597L149.824 11.104C149.915 11.1904 150.097 11.414 150.097 12.1H154.097ZM152.651 8.27675C151.572 7.13449 150.082 6.75 148.597 6.75V10.75C149.446 10.75 149.688 10.9655 149.743 11.0232L152.651 8.27675ZM148.597 6.75H144.047V10.75H148.597V6.75ZM142.047 8.75V15.85H146.047V8.75H142.047ZM200.031 16.85L198.367 15.7406V15.7406L200.031 16.85ZM195.081 20.6L194.388 18.7238L192.241 19.5167L193.315 21.5383L195.081 20.6ZM202.731 35V37H206.058L204.497 34.0617L202.731 35ZM190.331 35L188.532 35.8743L189.079 37H190.331V35ZM184.231 22.45L186.03 21.5757L185.482 20.45H184.231V22.45ZM180.131 22.45V20.45H178.131V22.45H180.131ZM180.131 35V37H182.131V35H180.131ZM169.081 35H167.081V37H169.081V35ZM169.081 0.599998V-1.4H167.081V0.599998H169.081ZM196.431 2.05L195.457 3.79673L195.477 3.80778L195.497 3.81839L196.431 2.05ZM200.381 5.9L198.614 6.83743L198.626 6.85912L198.638 6.88052L200.381 5.9ZM189.581 9.35L188.167 10.7642L189.581 9.35ZM180.131 8.45V6.45H178.131V8.45H180.131ZM180.131 14.8H178.131V16.8H180.131V14.8ZM189.581 13.9L190.995 15.3142L191.014 15.2951L191.033 15.2755L189.581 13.9ZM199.731 11.15C199.731 12.8668 199.275 14.3787 198.367 15.7406L201.695 17.9594C203.054 15.9213 203.731 13.6332 203.731 11.15H199.731ZM198.367 15.7406C197.498 17.0437 196.212 18.0503 194.388 18.7238L195.774 22.4762C198.283 21.5497 200.297 20.0563 201.695 17.9594L198.367 15.7406ZM193.315 21.5383L200.965 35.9383L204.497 34.0617L196.847 19.6617L193.315 21.5383ZM202.731 33H190.331V37H202.731V33ZM192.13 34.1257L186.03 21.5757L182.432 23.3243L188.532 35.8743L192.13 34.1257ZM184.231 20.45H180.131V24.45H184.231V20.45ZM178.131 22.45V35H182.131V22.45H178.131ZM180.131 33H169.081V37H180.131V33ZM171.081 35V0.599998H167.081V35H171.081ZM169.081 2.6H190.131V-1.4H169.081V2.6ZM190.131 2.6C192.338 2.6 194.085 3.03187 195.457 3.79673L197.405 0.303269C195.31 -0.865206 192.857 -1.4 190.131 -1.4V2.6ZM195.497 3.81839C196.939 4.58027 197.951 5.58706 198.614 6.83743L202.148 4.96257C201.078 2.94627 199.456 1.3864 197.365 0.281611L195.497 3.81839ZM198.638 6.88052C199.363 8.17043 199.731 9.58095 199.731 11.15H203.731C203.731 8.91905 203.198 6.82957 202.124 4.91948L198.638 6.88052ZM192.481 11.6C192.481 10.2053 191.995 8.93538 190.995 7.93579L188.167 10.7642C188.367 10.9646 188.481 11.1947 188.481 11.6H192.481ZM190.995 7.93579C190.011 6.95182 188.765 6.45 187.381 6.45V10.45C187.73 10.45 187.951 10.5482 188.167 10.7642L190.995 7.93579ZM187.381 6.45H180.131V10.45H187.381V6.45ZM178.131 8.45V14.8H182.131V8.45H178.131ZM180.131 16.8H187.381V12.8H180.131V16.8ZM187.381 16.8C188.765 16.8 190.011 16.2982 190.995 15.3142L188.167 12.4858C187.951 12.7018 187.73 12.8 187.381 12.8V16.8ZM191.033 15.2755C191.997 14.2578 192.481 12.9938 192.481 11.6H188.481C188.481 12.0062 188.365 12.2755 188.129 12.5245L191.033 15.2755ZM208.497 35H206.497V37H208.497V35ZM208.497 0.599998V-1.4H206.497V0.599998H208.497ZM219.547 0.599998H221.547V-1.4H219.547V0.599998ZM219.547 35V37H221.547V35H219.547ZM210.497 35V0.599998H206.497V35H210.497ZM208.497 2.6H219.547V-1.4H208.497V2.6ZM217.547 0.599998V35H221.547V0.599998H217.547ZM219.547 33H208.497V37H219.547V33ZM256.98 35H254.98V37H256.98V35ZM257.13 17.9L255.137 17.7373L255.136 17.7562L255.134 17.7752L257.13 17.9ZM257.53 13.8L259.516 14.0407V14.0407L257.53 13.8ZM257.78 11.7L259.768 11.9209L260.015 9.7H257.78V11.7ZM257.58 11.7V9.7H256.053L255.651 11.1741L257.58 11.7ZM251.23 35V37H252.758L253.16 35.5259L251.23 35ZM242.58 35L240.652 35.5308L241.057 37H242.58V35ZM236.18 11.75L238.109 11.2192L237.704 9.75H236.18V11.75ZM235.98 11.75V9.75H233.746L233.993 11.9709L235.98 11.75ZM236.23 13.85L234.245 14.0907L234.249 14.1248L234.254 14.1588L236.23 13.85ZM236.68 17.9L234.687 18.0627L234.687 18.0661L236.68 17.9ZM236.88 35V37H238.88V35H236.88ZM226.73 35H224.73V37H226.73V35ZM226.73 0.599998V-1.4H224.73V0.599998H226.73ZM242.33 0.599998L244.265 0.0931711L243.874 -1.4H242.33V0.599998ZM247.53 20.45L245.596 20.9568L245.987 22.45H247.53V20.45ZM247.73 20.45V22.45H249.278L249.666 20.9523L247.73 20.45ZM252.88 0.599998V-1.4H251.333L250.945 0.0977364L252.88 0.599998ZM267.93 0.599998H269.93V-1.4H267.93V0.599998ZM267.93 35V37H269.93V35H267.93ZM258.98 35V22.6H254.98V35H258.98ZM258.98 22.6C258.98 21.1101 259.029 19.5851 259.127 18.0248L255.134 17.7752C255.032 19.4149 254.98 21.0232 254.98 22.6H258.98ZM259.124 18.0627C259.256 16.4444 259.387 15.1057 259.516 14.0407L255.545 13.5593C255.407 14.6943 255.272 16.0889 255.137 17.7373L259.124 18.0627ZM259.516 14.0407C259.649 12.9438 259.734 12.2329 259.768 11.9209L255.793 11.4791C255.761 11.7671 255.679 12.4562 255.545 13.5593L259.516 14.0407ZM257.78 9.7H257.58V13.7H257.78V9.7ZM255.651 11.1741L249.301 34.4741L253.16 35.5259L259.51 12.2259L255.651 11.1741ZM251.23 33H242.58V37H251.23V33ZM244.509 34.4692L238.109 11.2192L234.252 12.2808L240.652 35.5308L244.509 34.4692ZM236.18 9.75H235.98V13.75H236.18V9.75ZM233.993 11.9709C234.027 12.2829 234.112 12.9938 234.245 14.0907L238.216 13.6093C238.082 12.5062 238 11.8171 237.968 11.5291L233.993 11.9709ZM234.254 14.1588C234.411 15.1591 234.556 16.4561 234.687 18.0627L238.674 17.7373C238.538 16.0773 238.384 14.6743 238.206 13.5412L234.254 14.1588ZM234.687 18.0661C234.816 19.6134 234.88 21.1246 234.88 22.6H238.88C238.88 21.0087 238.811 19.3866 238.674 17.7339L234.687 18.0661ZM234.88 22.6V35H238.88V22.6H234.88ZM236.88 33H226.73V37H236.88V33ZM228.73 35V0.599998H224.73V35H228.73ZM226.73 2.6H242.33V-1.4H226.73V2.6ZM240.396 1.10683L245.596 20.9568L249.465 19.9432L244.265 0.0931711L240.396 1.10683ZM247.53 22.45H247.73V18.45H247.53V22.45ZM249.666 20.9523L254.816 1.10226L250.945 0.0977364L245.795 19.9477L249.666 20.9523ZM252.88 2.6H267.93V-1.4H252.88V2.6ZM265.93 0.599998V35H269.93V0.599998H265.93ZM267.93 33H256.98V37H267.93V33ZM274.647 0.599998V-1.4H272.647V0.599998H274.647ZM304.397 0.599998H306.397V-1.4H304.397V0.599998ZM304.397 8.85V10.85H306.397V8.85H304.397ZM285.697 8.85V6.85H283.697V8.85H285.697ZM285.697 13.6H283.697V15.6H285.697V13.6ZM301.697 13.6H303.697V11.6H301.697V13.6ZM301.697 21.5V23.5H303.697V21.5H301.697ZM285.697 21.5V19.5H283.697V21.5H285.697ZM285.697 26.75H283.697V28.75H285.697V26.75ZM304.747 26.75H306.747V24.75H304.747V26.75ZM304.747 35V37H306.747V35H304.747ZM274.647 35H272.647V37H274.647V35ZM274.647 2.6H304.397V-1.4H274.647V2.6ZM302.397 0.599998V8.85H306.397V0.599998H302.397ZM304.397 6.85H285.697V10.85H304.397V6.85ZM283.697 8.85V13.6H287.697V8.85H283.697ZM285.697 15.6H301.697V11.6H285.697V15.6ZM299.697 13.6V21.5H303.697V13.6H299.697ZM301.697 19.5H285.697V23.5H301.697V19.5ZM283.697 21.5V26.75H287.697V21.5H283.697ZM285.697 28.75H304.747V24.75H285.697V28.75ZM302.747 26.75V35H306.747V26.75H302.747ZM304.747 33H274.647V37H304.747V33ZM276.647 35V0.599998H272.647V35H276.647Z" fill="#11EE42" fill-opacity="0.6"/>
</svg>
